<?xml version="1.0" encoding="iso-8859-1"?>
<!-- Generator: Adobe Illustrator 17.0.0, SVG Export Plug-In . SVG Version: 6.00 Build 0)  -->
<!DOCTYPE svg PUBLIC "-//W3C//DTD SVG 1.1//EN" "http://www.w3.org/Graphics/SVG/1.1/DTD/svg11.dtd">
<svg version="1.1" id="Capa_1" xmlns="http://www.w3.org/2000/svg" xmlns:xlink="http://www.w3.org/1999/xlink" x="0px" y="0px"
	 width="64px" height="64px" viewBox="0 0 64 64" style="enable-background:new 0 0 64 64;" xml:space="preserve">
<g>
	<path d="M6.628,35.701c-7.455,15.548,20.87,15.796,24.9,25.612c0.259,0.631,0.365,0.947,0.472,0.947s0.212-0.316,0.472-0.947
		c4.031-9.817,32.356-10.064,24.9-25.612c-6.675-13.92-0.767-21.881,1.404-24.161c0.381-0.4,0.419-1.017,0.042-1.421l-6.713-7.212
		c-0.241-0.258-0.61-0.393-0.975-0.393c-0.206,0-0.41,0.043-0.589,0.13c-2.397,1.168-4.963,1.582-7.398,1.582
		c-4.46,0-8.48-1.391-10.225-2.093C32.663,2.031,32.331,1.98,32,1.98c-0.331,0-0.662,0.052-0.919,0.155
		c-1.745,0.702-5.766,2.093-10.225,2.093c-2.435,0-5-0.414-7.398-1.582c-0.179-0.087-0.384-0.13-0.59-0.13
		c-0.365,0-0.734,0.134-0.975,0.393l-6.713,7.212c-0.376,0.404-0.338,1.021,0.043,1.421C7.395,13.82,13.303,21.782,6.628,35.701z
		 M13.537,7.013c2.238,0.807,4.691,1.214,7.319,1.214c4.639,0,8.788-1.263,11.144-2.158c2.356,0.895,6.505,2.158,11.144,2.158
		c2.628,0,5.082-0.408,7.319-1.214l3.663,3.935c-2.955,4.253-6.737,13.185-0.361,26.482c1.251,2.608,0.799,3.831,0.651,4.233
		c-1.048,2.843-6.401,5.215-11.123,7.308c-4.116,1.824-8.326,3.689-11.293,6.381c-2.967-2.692-7.178-4.557-11.293-6.381
		c-4.722-2.093-10.075-4.464-11.123-7.308c-0.148-0.402-0.599-1.625,0.651-4.233c6.376-13.297,2.594-22.229-0.361-26.482
		L13.537,7.013z"/>
	<path d="M15.645,33.143c-4.806,10.732,13.453,10.903,16.051,17.679c0.334,0.872,0.274,0.872,0.608,0
		c2.598-6.776,20.857-6.947,16.051-17.679c-4.302-9.608-0.494-15.104,0.905-16.678c0.245-0.276,0.27-0.702,0.027-0.981l-4.327-4.978
		c-0.243-0.279-0.688-0.348-1.008-0.181c-4.376,2.282-9.621,0.397-11.36-0.352c-0.33-0.142-0.854-0.142-1.185,0
		c-1.739,0.749-6.984,2.635-11.36,0.352c-0.32-0.167-0.766-0.098-1.008,0.181l-4.327,4.978c-0.243,0.279-0.218,0.705,0.027,0.981
		C16.14,18.039,19.948,23.535,15.645,33.143z"/>
</g>
</svg>
