<?xml version="1.0" encoding="utf-8"?>
<!-- Generator: Adobe Illustrator 17.0.2, SVG Export Plug-In . SVG Version: 6.00 Build 0)  -->
<!DOCTYPE svg PUBLIC "-//W3C//DTD SVG 1.1//EN" "http://www.w3.org/Graphics/SVG/1.1/DTD/svg11.dtd">
<svg version="1.1" id="Layer_1" xmlns="http://www.w3.org/2000/svg" xmlns:xlink="http://www.w3.org/1999/xlink" x="0px" y="0px"
	 width="227.844px" height="44.027px" viewBox="0 0 227.844 44.027" enable-background="new 0 0 227.844 44.027"
	 xml:space="preserve">
<g>
	<g opacity="0.35">
		<path fill="#706259" d="M14.676,13.044c0,0.898-0.733,1.632-1.631,1.632h-1.629c-0.898,0-1.632-0.733-1.632-1.632v-1.629
			c0-0.898,0.733-1.631,1.632-1.631h1.629c0.898,0,1.631,0.733,1.631,1.631V13.044z"/>
		<path fill="#706259" d="M34.244,13.044c0,0.898-0.733,1.632-1.632,1.632h-1.629c-0.898,0-1.631-0.733-1.631-1.632v-1.629
			c0-0.898,0.732-1.631,1.631-1.631h1.629c0.898,0,1.632,0.733,1.632,1.631V13.044z"/>
		<path fill="#706259" d="M14.676,32.612c0,0.898-0.733,1.631-1.631,1.631h-1.629c-0.898,0-1.632-0.732-1.632-1.631v-1.629
			c0-0.899,0.733-1.632,1.632-1.632h1.629c0.898,0,1.631,0.733,1.631,1.632V32.612z"/>
		<path fill="#706259" d="M34.244,32.612c0,0.898-0.733,1.631-1.632,1.631h-1.629c-0.898,0-1.631-0.732-1.631-1.631v-1.629
			c0-0.899,0.732-1.632,1.631-1.632h1.629c0.898,0,1.632,0.733,1.632,1.632V32.612z"/>
	</g>
	<g opacity="0.15">
		<path fill="#706259" d="M24.46,3.26c0,0.898-0.734,1.632-1.632,1.632H21.2c-0.898,0-1.632-0.733-1.632-1.632V1.631
			C19.568,0.733,20.302,0,21.2,0h1.628c0.897,0,1.632,0.733,1.632,1.631V3.26z"/>
		<path fill="#706259" d="M4.893,22.828c0,0.898-0.734,1.632-1.633,1.632H1.632C0.733,24.46,0,23.726,0,22.828v-1.629
			c0-0.899,0.733-1.632,1.632-1.632H3.26c0.898,0,1.633,0.733,1.633,1.632V22.828z"/>
		<path fill="#706259" d="M44.028,22.828c0,0.898-0.734,1.632-1.632,1.632h-1.628c-0.899,0-1.633-0.733-1.633-1.632v-1.629
			c0-0.899,0.734-1.632,1.633-1.632h1.628c0.897,0,1.632,0.733,1.632,1.632V22.828z"/>
		<path fill="#706259" d="M24.46,42.396c0,0.897-0.734,1.631-1.632,1.631H21.2c-0.898,0-1.632-0.733-1.632-1.631v-1.629
			c0-0.898,0.733-1.632,1.632-1.632h1.628c0.897,0,1.632,0.733,1.632,1.632V42.396z"/>
	</g>
	<g opacity="0.3">
		<path fill="#706259" d="M13.452,2.445c0,0.673-0.55,1.224-1.223,1.224c-0.672,0-1.223-0.551-1.223-1.224
			c0-0.671,0.551-1.223,1.223-1.223C12.902,1.223,13.452,1.774,13.452,2.445z"/>
		<path fill="#706259" d="M33.021,2.445c0,0.673-0.55,1.224-1.223,1.224c-0.673,0-1.223-0.551-1.223-1.224
			c0-0.671,0.55-1.223,1.223-1.223C32.471,1.223,33.021,1.774,33.021,2.445z"/>
		<path fill="#706259" d="M3.669,12.229c0,0.672-0.551,1.224-1.223,1.224c-0.673,0-1.224-0.552-1.224-1.224
			c0-0.672,0.551-1.223,1.224-1.223C3.118,11.007,3.669,11.558,3.669,12.229z"/>
		<path fill="#706259" d="M42.806,12.229c0,0.672-0.552,1.224-1.224,1.224c-0.672,0-1.223-0.552-1.223-1.224
			c0-0.672,0.551-1.223,1.223-1.223C42.254,11.007,42.806,11.558,42.806,12.229z"/>
		<path fill="#706259" d="M3.669,31.798c0,0.672-0.551,1.223-1.223,1.223c-0.673,0-1.224-0.551-1.224-1.223s0.551-1.224,1.224-1.224
			C3.118,30.574,3.669,31.126,3.669,31.798z"/>
		<path fill="#706259" d="M42.806,31.798c0,0.672-0.552,1.223-1.224,1.223c-0.672,0-1.223-0.551-1.223-1.223
			s0.551-1.224,1.223-1.224C42.254,30.574,42.806,31.126,42.806,31.798z"/>
		<path fill="#706259" d="M13.452,41.582c0,0.672-0.55,1.223-1.223,1.223c-0.672,0-1.223-0.551-1.223-1.223
			c0-0.673,0.551-1.224,1.223-1.224C12.902,40.358,13.452,40.909,13.452,41.582z"/>
		<path fill="#706259" d="M33.021,41.582c0,0.672-0.55,1.223-1.223,1.223c-0.673,0-1.223-0.551-1.223-1.223
			c0-0.673,0.55-1.224,1.223-1.224C32.471,40.358,33.021,40.909,33.021,41.582z"/>
	</g>
	<path fill="#8E4399" d="M26.545,25.034c0,0.832-0.68,1.511-1.511,1.511h-6.04c-0.831,0-1.512-0.679-1.512-1.511v-6.04
		c0-0.833,0.681-1.512,1.512-1.512h6.04c0.831,0,1.511,0.679,1.511,1.512V25.034z"/>
	<path opacity="0.5" fill="#9F26B5" d="M25.316,13.901c0,0.895-0.734,1.631-1.632,1.631h-3.342c-0.896,0-1.632-0.735-1.632-1.631
		v-3.343c0-0.897,0.735-1.632,1.632-1.632h3.342c0.897,0,1.632,0.735,1.632,1.632V13.901z M15.532,20.343
		c0-0.897-0.734-1.632-1.631-1.632h-3.343c-0.897,0-1.631,0.734-1.631,1.632v3.342c0,0.898,0.734,1.632,1.631,1.632h3.343
		c0.897,0,1.631-0.734,1.631-1.632V20.343z M35.101,20.343c0-0.897-0.734-1.632-1.632-1.632h-3.342
		c-0.898,0-1.632,0.734-1.632,1.632v3.342c0,0.898,0.734,1.632,1.632,1.632h3.342c0.897,0,1.632-0.734,1.632-1.632V20.343z
		 M25.316,30.126c0-0.896-0.734-1.631-1.632-1.631h-3.342c-0.896,0-1.632,0.735-1.632,1.631v3.343c0,0.896,0.735,1.632,1.632,1.632
		h3.342c0.897,0,1.632-0.735,1.632-1.632V30.126z"/>
</g>
<g>
	<path fill="#86786F" d="M182.416,11.105c0,0.303-0.248,0.551-0.549,0.551h-2.195c-0.303,0-0.549-0.248-0.549-0.551V8.912
		c0-0.303,0.246-0.549,0.549-0.549h2.195c0.301,0,0.549,0.246,0.549,0.549V11.105z"/>
	<path fill="#86786F" d="M97.988,25.586c0-5.678-3.287-10.236-9.004-10.236c-5.344,0-9.266,4.482-9.266,10.088
		c0,6.016,4.334,10.088,9.639,10.088c3.555,0,5.873-1.379,7.783-3.441c0.42-0.422,0.322-0.793,0.111-0.994l-0.855-0.81
		c-0.23-0.219-0.49-0.375-0.875,0.016c-1.568,1.644-3.438,2.726-6.088,2.726c-3.402,0-6.391-2.354-6.801-6.426c0,0,13.52,0,14.383,0
		C97.881,26.596,97.988,25.848,97.988,25.586z M82.633,24.279c0.41-3.736,2.951-6.502,6.277-6.502c3.811,0,5.828,2.99,6.164,6.502
		H82.633z"/>
	<path fill="#86786F" d="M227.844,25.586c0-5.678-3.285-10.236-9.002-10.236c-5.344,0-9.268,4.482-9.268,10.088
		c0,6.016,4.336,10.088,9.641,10.088c3.555,0,5.873-1.379,7.783-3.441c0.42-0.422,0.322-0.793,0.109-0.994l-0.854-0.81
		c-0.23-0.219-0.492-0.375-0.875,0.016c-1.568,1.644-3.438,2.726-6.09,2.726c-3.4,0-6.389-2.354-6.801-6.426c0,0,13.521,0,14.385,0
		C227.738,26.596,227.844,25.848,227.844,25.586z M212.488,24.279c0.412-3.736,2.951-6.502,6.279-6.502
		c3.809,0,5.826,2.99,6.162,6.502H212.488z"/>
	<path fill="#86786F" d="M125.92,7.801h-1.359c-0.418,0-0.76,0.314-0.76,0.699v25.895c0,0.383,0.342,0.697,0.76,0.697h1.359
		c0.416,0,0.76-0.314,0.76-0.697V8.5C126.68,8.115,126.336,7.801,125.92,7.801z"/>
	<path fill="#86786F" d="M172.168,7.801h-1.357c-0.418,0-0.76,0.314-0.76,0.699v25.895c0,0.383,0.342,0.697,0.76,0.697h1.357
		c0.418,0,0.76-0.314,0.76-0.697V8.5C172.928,8.115,172.586,7.801,172.168,7.801z"/>
	<path fill="#86786F" d="M181.432,15.76h-1.355c-0.42,0-0.762,0.314-0.762,0.699v17.936c0,0.383,0.342,0.697,0.762,0.697h1.355
		c0.418,0,0.76-0.314,0.76-0.697V16.459C182.191,16.074,181.85,15.76,181.432,15.76z"/>
	<path fill="#86786F" d="M74.564,9.621c0-0.385-0.34-0.699-0.76-0.699h-1.436c-0.42,0-0.76,0.315-0.76,0.699
		c0,0.01,0.006,10.922,0.006,10.922H56.52c0,0,0.006-10.912,0.006-10.922c0-0.385-0.342-0.699-0.76-0.699h-1.438
		c-0.418,0-0.76,0.315-0.76,0.699c0,0,0,24.725,0,24.764c0,0.385,0.342,0.699,0.76,0.699h1.438c0.418,0,0.76-0.314,0.76-0.699
		c0-0.039-0.006-11.076-0.006-11.076h15.096c0,0-0.006,11.037-0.006,11.076c0,0.385,0.34,0.699,0.76,0.699h1.436
		c0.42,0,0.76-0.314,0.76-0.699C74.564,34.346,74.564,9.621,74.564,9.621z"/>
	<path fill="#86786F" d="M115.996,17.592c-1.383-1.383-3.512-2.131-6.24-2.131c-2.426,0-4.764,0.631-6.58,1.379
		c-0.002,0.002,0.449-0.18-0.004,0c-0.457,0.182-0.529,0.535-0.422,0.908l0.277,0.979c0.113,0.402,0.564,0.656,0.91,0.512
		c0,0,3.693-1.162,5.52-1.162c3.623,0,5.717,1.793,5.717,5.233v0.598c-1.719-0.486-3.438-0.822-5.904-0.822
		c-4.895,0-8.258,2.166-8.258,6.314v0.074c0,3.961,3.588,6.016,7.211,6.016c3.4,0,5.605-1.568,6.951-3.287c0,0,0,1.762,0,2.168
		c0,0.406,0.338,0.709,0.756,0.709h1.309c0.418,0,0.75-0.303,0.75-0.709l0.025-11.1C118.014,20.805,117.34,18.938,115.996,17.592z
		 M115.211,27.979c0,3.062-2.877,5.193-6.426,5.193c-2.615,0-4.857-1.42-4.857-3.85v-0.074c0-2.316,2.055-3.885,5.641-3.885
		c2.354,0,4.223,0.41,5.643,0.822V27.979z"/>
	<path fill="#86786F" d="M142.111,18.301l0.01,0.002c0.383,0,0.697-0.342,0.697-0.76v-1.025c0-0.418-0.314-0.76-0.697-0.76
		l-0.01,0.002h-5.42c0,0,0.004-5.121,0.004-5.131c0-0.383-0.34-0.697-0.76-0.697h-1.357c-0.418,0-0.76,0.315-0.76,0.697h-0.004
		v5.131h-1.984l-0.01-0.002c-0.383,0-0.697,0.342-0.697,0.76v1.025c0,0.418,0.314,0.76,0.697,0.76l0.01-0.002h1.984v11.658
		c0,3.922,2.354,5.455,5.455,5.455c0.971,0,2.303-0.246,3.049-0.57l-0.002-0.01c0.287-0.094,0.502-0.375,0.502-0.717v-0.943
		c0-0.418-0.205-0.848-0.697-0.76c-0.363,0.066-1.586,0.383-2.18,0.383c-1.943,0-3.25-0.857-3.25-3.213V18.301H142.111z"/>
	<path fill="#86786F" d="M156.826,15.35c-3.301,0-5.311,1.658-6.582,3.73V8.508c0-0.383-0.344-0.697-0.76-0.697h-1.357
		c-0.42,0-0.76,0.314-0.76,0.697v25.895c0,0.385,0.34,0.699,0.76,0.699h1.357c0.416,0,0.76-0.314,0.76-0.699V23.516
		c0.219-3.342,2.594-5.551,5.76-5.551c3.402,0,5.344,2.24,5.344,5.828v8.467v0.764v1.355c0,0.385,0.342,0.699,0.762,0.699h1.355
		c0.418,0,0.76-0.314,0.76-0.699v-1.355V32.26v-9.176C164.225,18.488,161.498,15.35,156.826,15.35z"/>
	<path fill="#86786F" d="M197.793,15.35c-3.303,0-5.312,1.658-6.584,3.73v-2.621c0-0.385-0.34-0.699-0.76-0.699h-1.355
		c-0.42,0-0.762,0.314-0.762,0.699v17.943c0,0.385,0.342,0.699,0.762,0.699h1.355c0.42,0,0.76-0.314,0.76-0.699V23.516
		c0.221-3.342,2.596-5.551,5.764-5.551c3.398,0,5.342,2.24,5.342,5.828v8.467v0.764v1.355c0,0.385,0.342,0.699,0.76,0.699h1.357
		c0.418,0,0.76-0.314,0.76-0.699v-1.355V32.26v-9.176C205.191,18.488,202.463,15.35,197.793,15.35z"/>
</g>
</svg>
